<svg xmlns="http://www.w3.org/2000/svg" fill="none" viewBox="-12 -12 36 36" id="Facebook--Streamline-Svg-Logos" height="36" width="36">
  <desc>
    Facebook Streamline Icon: https://streamlinehq.com
  </desc>
  <path fill="#1877f2" d="M11.875 6C11.875 2.755325 9.244675 0.125 6 0.125S0.125 2.755325 0.125 6c0 2.9323875 2.1484 5.3628875 4.957025 5.803625V7.6982375H3.5903375V6h1.4916875V4.7056625c0 -1.472425 0.8771 -2.2857375 2.219075 -2.2857375 0.642775 0 1.3151125 0.1147375 1.3151125 0.1147375v1.4458125h-0.740825c-0.729825 0 -0.9574125 0.4528625 -0.9574125 0.917475V6h1.6293875l-0.260475 1.6982375H6.917975V11.803625C9.7266 11.3628875 11.875 8.9323875 11.875 6Z" stroke-width="0.125"></path>
  <path fill="#ffffff" d="M8.2868875 7.6982375 8.5473625 6H6.917975v-1.10205c0 -0.4646125 0.2275875 -0.917475 0.9574125 -0.917475h0.740825V2.5346625s-0.6723375 -0.1147375 -1.3151125 -0.1147375c-1.341975 0 -2.219075 0.8133125 -2.219075 2.2857375V6H3.5903375v1.6982375h1.4916875V11.803625C5.3811375 11.8505625 5.6877125 11.875 6 11.875c0.3122875 0 0.6188625 -0.0244375 0.917975 -0.071375V7.6982375h1.3689125Z" stroke-width="0.125"></path>
</svg>