<svg width="103.68947143554688px" height="51.60000076293945px" xmlns="http://www.w3.org/2000/svg" viewBox="198.15526428222657 49.19999961853027 103.68947143554688 51.60000076293945" style="background: rgba(0, 0, 0, 0);" preserveAspectRatio="xMidYMid"><defs><linearGradient id="editing-gradient-gradient" x1="0.9871850323926177" x2="0.012814967607382377" y1="0.3875244728280676" y2="0.6124755271719324" gradientUnits="objectBoundingBox"><stop offset="0" stop-color="#f0f"></stop><stop offset="1" stop-color="#0ff"></stop></linearGradient></defs><g><g transform="translate(201.62611842155457, 85.9000015258789)"><path d="M5.28 0L0.95 0L0.95-21.48L9.55-21.48L9.55-17.30L5.28-17.30L5.28-13.88L9.33-13.88L9.33-9.75L5.28-9.75L5.28 0ZM14.18 0.20L14.18 0.20Q12.05 0.20 11.26-1.21L11.26-1.21L11.26-1.21Q10.48-2.63 10.48-5.25L10.48-5.25L10.48-5.25Q10.48-7.40 11.04-8.55L11.04-8.55L11.04-8.55Q11.60-9.70 12.60-10.24L12.60-10.24L12.60-10.24Q13.60-10.78 15.65-11.43L15.65-11.43L16.85-11.83L16.85-11.88L16.85-13.70L16.85-13.70Q16.85-14.43 16.56-14.81L16.56-14.81L16.56-14.81Q16.28-15.20 15.88-15.20L15.88-15.20L15.88-15.20Q15.53-15.20 15.26-14.88L15.26-14.88L15.26-14.88Q15.00-14.55 15.00-14L15.00-14L15.00-12.90L10.75-12.90L10.75-13.50L10.75-13.50Q10.75-16.20 12.01-17.35L12.01-17.35L12.01-17.35Q13.28-18.50 16.13-18.50L16.13-18.50L16.13-18.50Q18.40-18.50 19.83-17.31L19.83-17.31L19.83-17.31Q21.25-16.13 21.25-13.95L21.25-13.95L21.25 0L16.90 0L16.90-2.18L16.90-2.18Q16.58-1.05 15.86-0.43L15.86-0.43L15.86-0.43Q15.15 0.20 14.18 0.20L14.18 0.20ZM15.90-3.20L15.90-3.20Q16.40-3.20 16.61-3.61L16.61-3.61L16.61-3.61Q16.83-4.03 16.83-4.63L16.83-4.63L16.83-9.73L16.83-9.73Q15.85-9.35 15.39-8.78L15.39-8.78L15.39-8.78Q14.93-8.20 14.93-7.18L14.93-7.18L14.93-4.83L14.93-4.83Q14.93-3.20 15.90-3.20L15.90-3.20ZM28.43 0.20L28.43 0.20Q25.43 0.20 24.10-1.33L24.10-1.33L24.10-1.33Q22.78-2.85 22.78-6L22.78-6L22.78-11.65L22.78-11.65Q22.78-14.03 23.29-15.51L23.29-15.51L23.29-15.51Q23.80-17 25.01-17.75L25.01-17.75L25.01-17.75Q26.23-18.50 28.38-18.50L28.38-18.50L28.38-18.50Q30.73-18.50 32.20-17.28L32.20-17.28L32.20-17.28Q33.68-16.05 33.68-13.85L33.68-13.85L33.68-11.05L29.23-11.05L29.23-13.63L29.23-13.63Q29.23-14.35 29.03-14.74L29.03-14.74L29.03-14.74Q28.83-15.13 28.25-15.13L28.25-15.13L28.25-15.13Q27.18-15.13 27.18-13.60L27.18-13.60L27.18-4.73L27.18-4.73Q27.18-4.10 27.44-3.66L27.44-3.66L27.44-3.66Q27.70-3.23 28.23-3.23L28.23-3.23L28.23-3.23Q28.75-3.23 29.01-3.65L29.01-3.65L29.01-3.65Q29.28-4.08 29.25-4.75L29.25-4.75L29.23-7.83L33.68-7.83L33.68-4.63L33.68-4.63Q33.68-2.38 32.21-1.09L32.21-1.09L32.21-1.09Q30.75 0.20 28.43 0.20L28.43 0.20ZM40.33 0.20L40.33 0.20Q37.50 0.20 36.28-1.35L36.28-1.35L36.28-1.35Q35.05-2.90 35.05-5.98L35.05-5.98L35.05-13.33L35.05-13.33Q35.05-15.85 36.50-17.18L36.50-17.18L36.50-17.18Q37.95-18.50 40.55-18.50L40.55-18.50L40.55-18.50Q45.83-18.50 45.83-13.33L45.83-13.33L45.83-12L45.83-12Q45.83-10 45.78-8.75L45.78-8.75L39.43-8.75L39.43-5.20L39.43-5.20Q39.43-4.25 39.63-3.71L39.63-3.71L39.63-3.71Q39.83-3.18 40.48-3.18L40.48-3.18L40.48-3.18Q40.98-3.18 41.19-3.48L41.19-3.48L41.19-3.48Q41.40-3.78 41.44-4.16L41.44-4.16L41.44-4.16Q41.48-4.55 41.48-5.30L41.48-5.30L41.48-7.08L45.83-7.08L45.83-6.03L45.83-6.03Q45.83-2.83 44.59-1.31L44.59-1.31L44.59-1.31Q43.35 0.20 40.33 0.20L40.33 0.20ZM39.40-10.93L41.48-10.93L41.48-13.28L41.48-13.28Q41.48-15.25 40.50-15.25L40.50-15.25L40.50-15.25Q39.40-15.25 39.40-13.28L39.40-13.28L39.40-10.93ZM54.48 0.20L54.48 0.20Q52.68 0.20 51.90-1.95L51.90-1.95L51.90 0L47.40 0L47.40-21.60L51.90-21.60L51.90-17.43L51.90-17.43Q52.95-18.50 54.35-18.50L54.35-18.50L54.35-18.50Q56.48-18.50 57.40-17.24L57.40-17.24L57.40-17.24Q58.33-15.98 58.33-13.60L58.33-13.60L58.33-4.78L58.33-4.78Q58.33-2.53 57.38-1.16L57.38-1.16L57.38-1.16Q56.43 0.20 54.48 0.20L54.48 0.20ZM53.00-3.20L53.00-3.20Q53.45-3.20 53.64-3.49L53.64-3.49L53.64-3.49Q53.83-3.78 53.86-4.21L53.86-4.21L53.86-4.21Q53.90-4.65 53.90-5.58L53.90-5.58L53.90-13.20L53.90-13.20Q53.90-14.18 53.73-14.65L53.73-14.65L53.73-14.65Q53.55-15.13 52.98-15.13L52.98-15.13L52.98-15.13Q52.35-15.13 52.13-14.65L52.13-14.65L52.13-14.65Q51.90-14.18 51.90-13.25L51.90-13.25L51.90-5.58L51.90-5.58Q51.90-4.38 52.10-3.79L52.10-3.79L52.10-3.79Q52.30-3.20 53.00-3.20L53.00-3.20ZM65.25 0.20L65.25 0.20Q59.78 0.20 59.78-5.48L59.78-5.48L59.78-12.83L59.78-12.83Q59.78-15.43 61.24-16.96L61.24-16.96L61.24-16.96Q62.70-18.50 65.25-18.50L65.25-18.50L65.25-18.50Q67.80-18.50 69.26-16.96L69.26-16.96L69.26-16.96Q70.73-15.43 70.73-12.83L70.73-12.83L70.73-5.48L70.73-5.48Q70.73 0.20 65.25 0.20L65.25 0.20ZM65.25-3.18L65.25-3.18Q65.78-3.18 66.03-3.55L66.03-3.55L66.03-3.55Q66.28-3.93 66.28-4.58L66.28-4.58L66.28-13.53L66.28-13.53Q66.28-15.13 65.25-15.13L65.25-15.13L65.25-15.13Q64.23-15.13 64.23-13.53L64.23-13.53L64.23-4.58L64.23-4.58Q64.23-3.93 64.48-3.55L64.48-3.55L64.48-3.55Q64.73-3.18 65.25-3.18L65.25-3.18ZM77.68 0.20L77.68 0.20Q72.20 0.20 72.20-5.48L72.20-5.48L72.20-12.83L72.20-12.83Q72.20-15.43 73.66-16.96L73.66-16.96L73.66-16.96Q75.13-18.50 77.68-18.50L77.68-18.50L77.68-18.50Q80.23-18.50 81.69-16.96L81.69-16.96L81.69-16.96Q83.15-15.43 83.15-12.83L83.15-12.83L83.15-5.48L83.15-5.48Q83.15 0.20 77.68 0.20L77.68 0.20ZM77.68-3.18L77.68-3.18Q78.20-3.18 78.45-3.55L78.45-3.55L78.45-3.55Q78.70-3.93 78.70-4.58L78.70-4.58L78.70-13.53L78.70-13.53Q78.70-15.13 77.68-15.13L77.68-15.13L77.68-15.13Q76.65-15.13 76.65-13.53L76.65-13.53L76.65-4.58L76.65-4.58Q76.65-3.93 76.90-3.55L76.90-3.55L76.90-3.55Q77.15-3.18 77.68-3.18L77.68-3.18ZM89.10 0L84.78 0L84.78-21.60L89.10-21.60L89.10-12L91.20-18.30L95.73-18.30L92.98-10.35L96.48 0L91.83 0L89.10-8.63L89.10 0Z" fill="url(#editing-gradient-gradient)"></path></g></g><style>text {
  font-size: 64px;
  font-family: Arial Black;
  dominant-baseline: central;
  text-anchor: middle;
}</style></svg>